<?xml version="1.0" encoding="utf-8"?>
<!-- Generator: Adobe Illustrator 27.3.1, SVG Export Plug-In . SVG Version: 6.00 Build 0)  -->
<svg version="1.1" id="Ebene_1" xmlns="http://www.w3.org/2000/svg" xmlns:xlink="http://www.w3.org/1999/xlink" x="0px" y="0px"
	 viewBox="0 0 568.3 249.2" style="enable-background:new 0 0 568.3 249.2;" xml:space="preserve">
<style type="text/css">
	.st0{clip-path:url(#SVGID_00000038379223582534776220000002130457487087675056_);}
</style>
<g>
	<g>
		<defs>
			<rect id="SVGID_1_" x="53.7" y="53.7" width="460.8" height="141.7"/>
		</defs>
		<clipPath id="SVGID_00000023981820493180216610000005852466278092602283_">
			<use xlink:href="#SVGID_1_"  style="overflow:visible;"/>
		</clipPath>
		<path style="clip-path:url(#SVGID_00000023981820493180216610000005852466278092602283_);" d="M464.6,146.7h-3.9V167h4.3v-10.9
			c0-2,0.4-3.5,1.1-4.5c0.7-1,1.8-1.5,3.3-1.5h2.3v-3.7c-0.6-0.1-1.2-0.1-1.9-0.1c-2,0-3.5,0.9-4.7,2.6L464.6,146.7z M357,138.8
			h-4.3V167h4.3v-11c0-4,1.5-5.9,4.5-5.9c1.6,0,2.8,0.5,3.5,1.4c0.7,0.9,1.1,2.4,1.1,4.5v11h4.3v-11c0-3.3-0.6-5.7-1.9-7.2
			c-1.3-1.6-3.3-2.4-6.1-2.4c-1.2,0-2.3,0.3-3.2,0.8c-0.9,0.5-1.7,1.1-2.2,1.8V138.8z M356.8,107.6h-4.3v20.2h4.3V107.6z M357,99.6
			h-4.9v4.8h4.9V99.6z M333,149.2c-1.7,1.9-2.6,4.5-2.6,7.6c0,3.2,0.9,5.7,2.6,7.6c1.7,1.9,4.1,2.9,7,2.9c1.3,0,2.4-0.2,3.5-0.6
			c1.1-0.4,1.9-0.9,2.7-1.6c0.7-0.7,1.3-1.4,1.7-2.2c0.4-0.8,0.8-1.6,0.9-2.5c-2.2-0.4-3.6-0.7-4.3-0.8c-0.3,1.2-0.9,2.2-1.6,2.9
			c-0.8,0.7-1.7,1-2.9,1c-1.7,0-3-0.6-3.9-1.9c-0.9-1.2-1.4-2.9-1.4-5c0-2.1,0.5-3.7,1.4-5c0.9-1.2,2.2-1.8,3.9-1.8
			c1.1,0,2,0.3,2.8,1c0.8,0.7,1.3,1.6,1.7,2.9c0.2,0,1.7-0.3,4.3-0.8c-0.2-0.7-0.4-1.4-0.7-2c-0.3-0.6-0.7-1.2-1.2-1.8
			c-0.5-0.6-1.1-1.1-1.7-1.5c-0.6-0.4-1.4-0.8-2.3-1c-0.9-0.3-1.8-0.4-2.9-0.4C337,146.3,334.7,147.3,333,149.2 M314.3,160.2
			c0,0-1.4,0.3-4.2,0.8c0.3,1.9,1.2,3.5,2.7,4.6c1.5,1.2,3.5,1.8,6,1.8c2.5,0,4.6-0.6,6.2-1.7c1.6-1.1,2.4-2.7,2.4-4.8
			c0-0.9-0.2-1.7-0.5-2.4c-0.3-0.7-0.7-1.2-1.2-1.7c-0.5-0.4-1.1-0.8-1.9-1.1c-0.8-0.3-1.5-0.5-2.3-0.6c-0.7-0.1-1.6-0.3-2.6-0.4
			c-1.3-0.1-2.3-0.4-3-0.7c-0.6-0.3-1-0.9-1-1.6c0-0.6,0.3-1.2,1-1.6c0.7-0.5,1.5-0.7,2.6-0.7c2.6,0,4,1.1,4.2,3.4
			c2.4-0.5,3.8-0.7,4.3-0.8c-0.1-1.1-0.5-2.1-1-2.9c-0.5-0.8-1.2-1.5-1.9-2c-0.8-0.5-1.7-0.9-2.6-1.1s-2-0.4-3.1-0.4
			c-2.2,0-4,0.6-5.5,1.7c-1.5,1.2-2.2,2.6-2.2,4.3c0,0.9,0.1,1.7,0.4,2.4c0.3,0.7,0.7,1.2,1.1,1.6c0.5,0.4,1,0.7,1.7,1
			c0.6,0.3,1.3,0.4,2,0.5c0.7,0.1,1.4,0.2,2.1,0.3c0.7,0.1,1.3,0.2,2,0.3c0.6,0.1,1.2,0.2,1.7,0.4c0.5,0.2,0.9,0.4,1.1,0.8
			c0.3,0.3,0.4,0.8,0.4,1.3c0,0.6-0.2,1.1-0.5,1.5c-0.4,0.4-0.8,0.7-1.3,0.9c-0.5,0.2-1,0.3-1.4,0.3c-0.4,0.1-0.7,0.1-1,0.1
			C316.2,163.7,314.7,162.5,314.3,160.2 M293.1,138.8h-4.3V167h4.3v-11c0-4,1.5-5.9,4.5-5.9c1.6,0,2.8,0.5,3.5,1.4
			c0.7,0.9,1.1,2.4,1.1,4.5v11h4.3v-11c0-3.3-0.6-5.7-1.9-7.2c-1.3-1.6-3.3-2.4-6.1-2.4c-1.2,0-2.3,0.3-3.2,0.8
			c-0.9,0.5-1.7,1.1-2.2,1.8V138.8L293.1,138.8z M289.2,117.7c0,2.2-0.5,3.9-1.4,5.1c-0.9,1.2-2.2,1.8-3.7,1.8
			c-1.6,0-2.8-0.6-3.7-1.8c-0.9-1.2-1.4-2.9-1.4-5.1c0-2.2,0.5-3.8,1.4-5c0.9-1.2,2.2-1.8,3.7-1.8c1.6,0,2.8,0.6,3.7,1.8
			C288.7,113.8,289.2,115.5,289.2,117.7 M291,125.3c1.7-1.9,2.5-4.5,2.5-7.6c0-3.1-0.9-5.7-2.6-7.6c-1.7-1.9-4-2.9-6.9-2.9
			c-2.9,0-5.2,1-6.9,2.9c-1.7,1.9-2.5,4.5-2.5,7.6c0,3.2,0.8,5.7,2.5,7.6c1.7,1.9,4,2.9,6.9,2.9C287,128.2,289.3,127.2,291,125.3
			 M269,149.2c-1.7,1.9-2.6,4.5-2.6,7.6c0,3.2,0.9,5.7,2.6,7.6c1.7,1.9,4.1,2.9,7,2.9c1.3,0,2.4-0.2,3.5-0.6
			c1.1-0.4,1.9-0.9,2.7-1.6c0.7-0.7,1.3-1.4,1.7-2.2c0.4-0.8,0.8-1.6,0.9-2.5c-2.2-0.4-3.6-0.7-4.3-0.8c-0.3,1.2-0.9,2.2-1.7,2.9
			c-0.8,0.7-1.7,1-2.9,1c-1.7,0-3-0.6-3.9-1.9s-1.4-2.9-1.4-5c0-2.1,0.5-3.7,1.4-5c0.9-1.2,2.2-1.8,3.9-1.8c1.1,0,2,0.3,2.8,1
			c0.8,0.7,1.3,1.6,1.7,2.9c0.2,0,1.7-0.3,4.3-0.8c-0.2-0.7-0.4-1.4-0.7-2c-0.3-0.6-0.7-1.2-1.2-1.8c-0.5-0.6-1.1-1.1-1.7-1.5
			c-0.6-0.4-1.4-0.8-2.3-1c-0.9-0.3-1.8-0.4-2.9-0.4C273.1,146.3,270.8,147.3,269,149.2 M249.3,156.8c0-2.2,0.5-3.8,1.4-5
			c0.9-1.2,2.2-1.8,3.7-1.8c1.6,0,2.8,0.6,3.7,1.8c0.9,1.2,1.4,2.9,1.4,5c0,2.2-0.5,3.9-1.4,5.1c-0.9,1.2-2.2,1.8-3.7,1.8
			c-1.6,0-2.8-0.6-3.7-1.8C249.7,160.7,249.3,159,249.3,156.8 M247.5,149.2c-1.7,1.9-2.5,4.5-2.5,7.6c0,3.2,0.8,5.7,2.5,7.6
			c1.7,1.9,4,2.9,6.9,2.9c2.9,0,5.2-1,6.9-2.9c1.7-1.9,2.5-4.5,2.5-7.6c0-3.1-0.9-5.7-2.6-7.6c-1.7-1.9-4-2.9-6.9-2.9
			C251.5,146.3,249.2,147.3,247.5,149.2 M239.2,110.8c1.6,0,2.8,0.5,3.5,1.4c0.7,1,1.1,2.5,1.1,4.5v11h4.3v-11
			c0-3.3-0.6-5.7-1.9-7.3c-1.2-1.6-3.3-2.3-6.2-2.4c-1.2,0-2.3,0.3-3.3,0.8c-1,0.5-1.7,1.1-2.1,1.8l-0.4-2.2h-3.9v20.2h4.3v-11
			C234.7,112.8,236.2,110.8,239.2,110.8 M224.9,138.8h-4.5V167h4.5v-12.6H237V167h4.5v-28.2H237v11.8h-12.1V138.8z M224.9,99.6h-4.5
			v28.2h4.5V99.6z M110.5,148.7l-50.3-22.4l62.8-25.8l50.3,22.4L110.5,148.7z M112.6,189.8l0-5.5l62.8-25.8l0,5.5L112.6,189.8z
			 M175.5,153.8l-62.8,25.8l0-6.1l62.8-25.8L175.5,153.8z M175.4,143l-62.8,25.8v-6l62.8-25.7L175.4,143z M175.4,132.3l-62.8,25.7
			l0-5.6l62.8-25.7L175.4,132.3z M175.4,119.1l-50.2-22.3l0-37.2l50.1,22.6L175.4,119.1z M120.8,59.4l0,5.5L58.2,90.6l0-5.5
			L120.8,59.4z M58.2,95.3l62.7-25.7l0,6l-62.7,25.7L58.2,95.3z M58.2,106.1l62.7-25.7l0,6l-62.7,25.7L58.2,106.1z M58.2,116.8
			l62.7-25.7l0,5.6l-62.7,25.7L58.2,116.8z M58.1,130.2l50.1,22.3l0,37.2l-50.1-22.6L58.1,130.2z M110.4,195.5l69.4-28.5l-0.1-87.7
			l-56.7-25.5L53.8,82.2l0,87.8L110.4,195.5z M241.2,79.7c0-0.9-0.1-1.8-0.4-2.5c-0.2-0.8-0.5-1.4-0.9-1.9c-0.4-0.5-0.8-1-1.4-1.4
			c-0.6-0.4-1.2-0.8-1.7-1c-0.6-0.3-1.2-0.5-2-0.7c-0.8-0.2-1.4-0.3-2-0.4c-0.6-0.1-1.3-0.2-2-0.3c-4.2-0.5-6.3-1.8-6.3-4
			c0-0.8,0.2-1.4,0.5-2c0.3-0.6,0.8-1,1.3-1.4c0.6-0.3,1.2-0.6,1.8-0.7c0.7-0.2,1.4-0.2,2.1-0.2c0.7,0,1.4,0.1,2.1,0.3
			c0.7,0.2,1.3,0.5,1.8,0.9c0.6,0.4,1,0.9,1.4,1.6c0.4,0.7,0.6,1.5,0.7,2.3l4.3-0.7c-0.1-1.3-0.4-2.4-1-3.5c-0.6-1-1.4-1.9-2.3-2.6
			c-1-0.7-2.1-1.2-3.3-1.6c-1.2-0.4-2.5-0.6-3.7-0.6c-1,0-1.9,0.1-2.9,0.3c-0.9,0.2-1.8,0.5-2.7,0.9c-0.9,0.4-1.7,1-2.3,1.6
			c-0.7,0.6-1.2,1.4-1.6,2.3c-0.4,0.9-0.6,1.9-0.6,3c0,4.5,3.5,7.1,10.4,7.8c0.6,0,1.1,0.1,1.5,0.2s0.9,0.2,1.4,0.3
			c0.5,0.1,0.9,0.3,1.3,0.5c0.4,0.2,0.7,0.5,1,0.8c0.3,0.3,0.6,0.7,0.7,1.1c0.2,0.5,0.2,1,0.2,1.5c0,1.5-0.6,2.6-1.8,3.4
			c-1.2,0.8-2.7,1.2-4.4,1.2c-1.1,0-2.2-0.2-3.1-0.6c-0.9-0.4-1.6-0.9-2.1-1.6c-0.5-0.6-0.9-1.3-1.2-2c-0.3-0.7-0.4-1.4-0.4-2.1
			l-4.5,0.8c0,0.9,0.2,1.7,0.4,2.6c0.3,0.8,0.7,1.7,1.3,2.5c0.6,0.8,1.3,1.5,2.1,2.2c0.8,0.6,1.9,1.1,3.2,1.5
			c1.3,0.4,2.7,0.6,4.2,0.6c3.2,0,5.8-0.8,7.7-2.3C240.2,84.3,241.2,82.2,241.2,79.7 M250.8,70.8h4.2v-3.2h-4.2v-5.9h-4.3v5.9H243
			v3.2h3.5V82c0,2,0.4,3.5,1.1,4.5c0.8,1,2.1,1.5,3.9,1.5h0.5l2.6-0.2v-3.5c-0.2,0-0.6,0-1,0c-0.4,0-0.7,0-0.9,0
			c-0.7,0-1.2-0.1-1.5-0.5c-0.3-0.3-0.4-0.8-0.4-1.7L250.8,70.8L250.8,70.8z M262.8,107.2c-1.2,0-2.3,0.3-3.3,0.8
			c-1,0.5-1.7,1.1-2.1,1.8l-0.4-2.2h-3.9v20.2h4.3v-11c0-4,1.5-6,4.5-6c1.6,0,2.7,0.5,3.5,1.4c0.7,1,1.1,2.5,1.1,4.5v11h4.3v-11
			c0-3.3-0.6-5.7-1.9-7.3C267.7,108,265.7,107.2,262.8,107.2 M259.9,87.8h4.3V67.5h-4.3V87.8z M259.7,64.5h4.9v-4.8h-4.9V64.5z
			 M277.9,63.3h2.4v-3.7h-3c-3.7,0-5.6,1.8-5.6,5.5v2.5h-3.5v3.2h3.5v17h4.3v-17h3.8v-3.2h-3.8v-2.2C276.2,64,276.7,63.3,277.9,63.3
			 M290.2,70.8h4.2v-3.2h-4.2v-5.9h-4.3v5.9h-3.5v3.2h3.5V82c0,2,0.4,3.5,1.1,4.5c0.8,1,2.1,1.5,3.9,1.5h0.5l2.6-0.2v-3.5
			c-0.2,0-0.6,0-1,0c-0.4,0-0.7,0-0.9,0c-0.7,0-1.2-0.1-1.5-0.5c-0.3-0.3-0.4-0.8-0.4-1.7L290.2,70.8L290.2,70.8z M299,107.6h-4.5
			l7.6,20.2h4.3l7.5-20.2h-4.5l-5.2,15L299,107.6z M312.2,87.8h3.9V67.5h-4.3v11c0,2-0.4,3.5-1.1,4.5c-0.7,1-1.9,1.5-3.4,1.5
			c-1.6,0-2.7-0.5-3.5-1.4c-0.7-0.9-1.1-2.4-1.1-4.5v-11h-4.3v11c0,3.3,0.6,5.7,1.8,7.3c1.2,1.6,3.2,2.3,6,2.3
			c1.3,0,2.4-0.3,3.4-0.8c1-0.5,1.7-1.1,2.1-1.8L312.2,87.8z M328.7,119v1c0,1.2-0.5,2.3-1.5,3.2c-1,0.9-2.3,1.4-4,1.4
			c-1.2,0-2.1-0.3-2.7-0.8c-0.6-0.5-0.9-1.2-0.9-2c0-0.3,0.1-0.6,0.2-0.9c0.1-0.3,0.3-0.6,0.6-0.9c0.3-0.3,0.7-0.6,1.3-0.8
			c0.6-0.2,1.3-0.3,2.2-0.3H328.7z M324.4,107.2c-1.5,0-2.8,0.2-4,0.7c-1.2,0.5-2.2,1.2-3,2.2c-0.8,1-1.3,2.2-1.4,3.7
			c0.5,0.1,1.2,0.2,2.2,0.4c1,0.2,1.7,0.3,2.1,0.4c0-1.2,0.4-2.1,1.1-2.7c0.7-0.6,1.7-0.9,3-0.9c0.7,0,1.3,0.1,1.9,0.2
			c0.5,0.2,1,0.4,1.3,0.6c0.3,0.2,0.6,0.5,0.8,0.9c0.2,0.3,0.3,0.7,0.4,1c0.1,0.3,0.1,0.6,0.1,1v1.2h-5.2c-2.5,0-4.6,0.6-6,1.8
			c-1.5,1.2-2.2,2.6-2.2,4.3c0,1.9,0.7,3.5,2,4.7c1.3,1.2,3.2,1.8,5.5,1.8c1.5,0,2.8-0.4,3.9-1c1.1-0.6,1.9-1.3,2.5-2
			c0.2,0.9,0.5,1.6,1.1,2.1c0.6,0.5,1.4,0.8,2.4,0.8c0.9,0,1.7-0.1,2.6-0.3v-3.5c-0.3,0.1-0.6,0.2-1,0.2c-0.4,0-0.7-0.2-0.9-0.5
			c-0.2-0.3-0.2-0.8-0.2-1.4v-7c0-2.8-0.7-4.8-2.2-6.2C329.4,107.9,327.2,107.2,324.4,107.2 M335,87.8h4.3v-11
			c0-3.3-0.6-5.7-1.9-7.3c-1.2-1.6-3.3-2.3-6.2-2.4c-1.2,0-2.3,0.3-3.3,0.8c-1,0.5-1.7,1.1-2.1,1.8l-0.4-2.2h-3.9v20.2h4.3v-11
			c0-4,1.5-6,4.5-6c1.6,0,2.7,0.5,3.5,1.4c0.7,1,1.1,2.5,1.1,4.5V87.8z M339.3,101.7v5.9h-3.5v3.2h3.5V122c0,2,0.4,3.5,1.1,4.5
			c0.8,1,2.1,1.5,3.9,1.5h0.5l2.6-0.2v-3.5c-0.2,0-0.6,0-1,0c-0.4,0-0.7,0-0.9,0c-0.7,0-1.2-0.2-1.5-0.5c-0.3-0.3-0.4-0.9-0.4-1.6
			v-11.5h4.2v-3.2h-4.2v-5.9H339.3z M357.7,77.6c0,2.2-0.4,3.9-1.3,5.1c-0.9,1.2-2.1,1.8-3.7,1.8c-1.6,0-2.9-0.6-3.8-1.8
			c-0.9-1.2-1.4-2.9-1.4-5.1c0-2.2,0.5-3.8,1.4-5c0.9-1.2,2.2-1.8,3.8-1.8c1.6,0,2.8,0.6,3.7,1.8S357.7,75.5,357.7,77.6 M359.4,93.7
			c1.7-1.6,2.6-3.8,2.6-6.8V67.5h-4l-0.4,2.6c-0.4-0.8-1.1-1.5-2.2-2.1c-1.1-0.6-2.2-0.9-3.5-0.9c-2.6,0-4.8,1-6.4,2.9
			c-1.7,2-2.5,4.5-2.5,7.6c0,3.1,0.8,5.6,2.5,7.6c1.7,2,3.8,2.9,6.4,2.9c1.2,0,2.3-0.3,3.4-0.8c1.1-0.5,1.9-1.2,2.3-2v1.5
			c0,1.7-0.4,3-1.3,4c-0.9,1-2.1,1.5-3.7,1.5c-1.1,0-2.1-0.3-3-0.8c-0.9-0.5-1.4-1.2-1.6-2l-4.2,1.2c0.4,1.7,1.4,3,3,3.9
			c1.6,0.9,3.5,1.4,5.8,1.4C355.4,96.1,357.7,95.3,359.4,93.7 M375.8,117.7c0,2.2-0.5,3.9-1.4,5.1c-0.9,1.2-2.2,1.8-3.7,1.8
			c-1.6,0-2.8-0.6-3.7-1.8c-0.9-1.2-1.4-2.9-1.4-5.1c0-2.2,0.5-3.8,1.4-5c0.9-1.2,2.2-1.8,3.7-1.8c1.6,0,2.8,0.6,3.7,1.8
			C375.4,113.8,375.8,115.5,375.8,117.7 M377.6,125.3c1.7-1.9,2.5-4.5,2.5-7.6c0-3.1-0.9-5.7-2.6-7.6c-1.7-1.9-4-2.9-6.9-2.9
			c-2.9,0-5.2,1-6.9,2.9c-1.7,1.9-2.5,4.5-2.5,7.6c0,3.2,0.8,5.7,2.5,7.6c1.7,1.9,4,2.9,6.9,2.9
			C373.6,128.2,375.9,127.2,377.6,125.3 M383.5,163.7c-1.6,0-2.7-0.5-3.5-1.4c-0.7-0.9-1.1-2.4-1.1-4.5v-11h-4.3v11
			c0,3.3,0.6,5.7,1.8,7.3c1.2,1.6,3.2,2.3,6,2.3c1.3,0,2.4-0.3,3.4-0.8c1-0.5,1.7-1.1,2.1-1.8l0.4,2.2h3.9v-20.2H388v11
			c0,2-0.4,3.5-1.1,4.5C386.1,163.2,385,163.7,383.5,163.7 M397.8,127.8h4.3v-11c0-3.3-0.6-5.7-1.9-7.3c-1.2-1.6-3.3-2.3-6.2-2.4
			c-1.2,0-2.3,0.3-3.3,0.8c-1,0.5-1.7,1.1-2.1,1.8l-0.4-2.2h-3.9v20.2h4.3v-11c0-4,1.5-6,4.5-6c1.6,0,2.7,0.5,3.5,1.4
			c0.7,1,1.1,2.5,1.1,4.5V127.8z M397.8,167h4.3v-28.2h-4.3V167z M407.5,167h4.3v-28.2h-4.3V167z M416.2,104.5h4.9v-4.8h-4.9V104.5z
			 M420.8,107.6h-4.3v20.2h4.3V107.6z M429.6,154.9h-9.2c0.1-1.3,0.5-2.5,1.3-3.4c0.8-1,1.9-1.4,3.3-1.4c1.4,0,2.5,0.4,3.3,1.3
			C429.1,152.2,429.5,153.4,429.6,154.9 M431.7,149c-1.6-1.8-3.9-2.7-6.7-2.7c-2.8,0-5.1,1-6.8,2.9c-1.7,1.9-2.6,4.5-2.6,7.6
			c0,3.1,0.9,5.6,2.7,7.6c1.8,1.9,4.1,2.9,6.8,2.9c1.3,0,2.5-0.2,3.6-0.6c1.1-0.4,2-0.9,2.7-1.5c0.7-0.6,1.3-1.3,1.8-2
			c0.5-0.7,0.8-1.5,1.1-2.2c-2.3-0.7-3.7-1.1-4-1.1c-0.5,1.3-1.2,2.3-2.1,2.9c-0.9,0.6-2,0.9-3.1,0.9c-1.4,0-2.6-0.5-3.6-1.6
			c-0.9-1.1-1.4-2.4-1.5-3.9h13.9c0.1-0.5,0.1-1.1,0.1-1.9C434.2,153.2,433.4,150.8,431.7,149 M440,127.8h4.3v-11
			c0-3.3-0.6-5.7-1.9-7.3c-1.2-1.6-3.3-2.3-6.2-2.4c-1.2,0-2.3,0.3-3.3,0.8c-1,0.5-1.7,1.1-2.1,1.8l-0.4-2.2h-3.9v20.2h4.3v-11
			c0-4,1.5-6,4.5-6c1.6,0,2.7,0.5,3.5,1.4c0.7,1,1.1,2.5,1.1,4.5V127.8L440,127.8z M452,167h4.3v-11c0-3.3-0.6-5.7-1.9-7.2
			c-1.3-1.6-3.3-2.4-6.1-2.4c-1.2,0-2.3,0.3-3.2,0.8c-0.9,0.5-1.7,1.1-2.2,1.8v-10.1h-4.3V167h4.3v-11c0-4,1.5-5.9,4.5-5.9
			c1.6,0,2.8,0.5,3.5,1.4c0.7,0.9,1.1,2.4,1.1,4.5V167z M471.8,117.7c0,2.2-0.4,3.9-1.3,5.1c-0.9,1.2-2.1,1.8-3.7,1.8
			c-1.6,0-2.9-0.6-3.8-1.8c-0.9-1.2-1.4-2.9-1.4-5c0-2.2,0.5-3.8,1.4-5c0.9-1.2,2.2-1.8,3.8-1.8c1.6,0,2.8,0.6,3.7,1.8
			C471.4,113.8,471.8,115.5,471.8,117.7 M472.2,127.8h4V99.6h-4.3V110c-0.5-0.7-1.3-1.3-2.4-1.9c-1.1-0.6-2.2-0.9-3.5-0.9
			c-2.7,0-4.8,1-6.4,2.9c-1.6,1.9-2.4,4.5-2.4,7.6c0,3.1,0.8,5.6,2.5,7.6c1.6,2,3.7,2.9,6.3,2.9c1.3,0,2.5-0.3,3.6-0.9
			c1.1-0.6,1.8-1.3,2.3-2L472.2,127.8z M479.7,151.5c0.8-1,1.9-1.4,3.3-1.4c1.4,0,2.5,0.4,3.3,1.3c0.8,0.9,1.2,2.1,1.2,3.6h-9.2
			C478.5,153.6,478.9,152.4,479.7,151.5 M483,146.3c-2.8,0-5.1,1-6.8,2.9c-1.7,1.9-2.5,4.5-2.5,7.6c0,3.1,0.9,5.6,2.7,7.6
			c1.8,1.9,4.1,2.9,6.8,2.9c1.3,0,2.5-0.2,3.6-0.6c1.1-0.4,2-0.9,2.7-1.5c0.7-0.6,1.3-1.3,1.8-2c0.5-0.7,0.8-1.5,1.1-2.2
			c-2.3-0.7-3.7-1.1-4-1.1c-0.5,1.3-1.2,2.3-2.1,2.9c-0.9,0.6-2,0.9-3.1,0.9c-1.4,0-2.6-0.5-3.6-1.6c-0.9-1.1-1.4-2.4-1.5-3.9h13.9
			c0.1-0.5,0.1-1.1,0.1-1.9c0-3-0.8-5.5-2.5-7.2C488.1,147.2,485.8,146.3,483,146.3 M485.1,115.7c0.1-1.3,0.5-2.5,1.3-3.4
			c0.8-1,1.9-1.4,3.3-1.4c1.4,0,2.5,0.4,3.3,1.3c0.8,0.9,1.2,2.1,1.2,3.6H485.1z M486.3,122.9c-0.9-1.1-1.4-2.4-1.5-3.9h13.9
			c0.1-0.5,0.1-1.1,0.1-1.9c0-3-0.8-5.5-2.5-7.2c-1.6-1.8-3.9-2.7-6.7-2.7c-2.8,0-5.1,1-6.8,2.9c-1.7,1.9-2.6,4.5-2.6,7.6
			c0,3.1,0.9,5.6,2.7,7.6c1.8,1.9,4.1,2.9,6.8,2.9c1.3,0,2.5-0.2,3.6-0.6c1.1-0.4,2-0.9,2.7-1.5c0.7-0.6,1.3-1.3,1.8-2
			c0.5-0.7,0.8-1.5,1.1-2.2c-2.3-0.7-3.7-1.1-4-1.1c-0.5,1.3-1.2,2.3-2.1,2.9c-0.9,0.6-2,0.9-3.1,0.9
			C488.5,124.5,487.3,124,486.3,122.9 M514.6,111v-3.7c-0.6-0.1-1.2-0.1-1.9-0.1c-2,0-3.5,0.9-4.7,2.6l-0.4-2.2h-3.9v20.2h4.3v-10.9
			c0-2,0.4-3.5,1.1-4.5c0.7-1,1.8-1.5,3.3-1.5H514.6z"/>
	</g>
</g>
</svg>
