<?xml version="1.0" encoding="utf-8"?>
<!-- Generator: Adobe Illustrator 27.0.0, SVG Export Plug-In . SVG Version: 6.00 Build 0)  -->
<svg version="1.1" id="Ebene_1" xmlns="http://www.w3.org/2000/svg" xmlns:xlink="http://www.w3.org/1999/xlink" x="0px" y="0px"
	 viewBox="0 0 90.1 34.9" style="enable-background:new 0 0 90.1 34.9;" xml:space="preserve">
<style type="text/css">
	.st0{fill:#0A6B96;}
	.st1{fill:none;stroke:#0A6B96;stroke-width:0.6808;stroke-linecap:round;stroke-linejoin:round;stroke-miterlimit:10;}
</style>
<g>
	<g>
		<path class="st0" d="M2.5,31.5c-0.2,0.1-0.5,0.1-0.7,0.1c-1,0-1.5-0.4-1.5-1.2v-21c0.1,0,0.3-0.1,0.5-0.2C1,9.1,1.3,9.1,1.5,9.1
			c1,0,1.4,0.4,1.4,1.2v12.3l7.5-7.2c0.5,0,1,0.2,1.3,0.4s0.5,0.6,0.5,0.9c0,0.3-0.1,0.6-0.3,0.8c-0.2,0.2-0.5,0.5-0.8,0.8l-5.5,4.8
			l7.6,6.8c0,0.5-0.2,0.9-0.5,1.2c-0.3,0.3-0.6,0.4-1,0.4c-0.3,0-0.7-0.1-0.9-0.3c-0.3-0.2-0.6-0.4-0.9-0.7L3,23.7v7.6
			C2.9,31.4,2.7,31.4,2.5,31.5z"/>
		<path class="st0" d="M31,23.5c0,1.3-0.2,2.4-0.5,3.4c-0.4,1-0.9,1.9-1.5,2.6c-0.7,0.7-1.5,1.3-2.4,1.7c-1,0.4-2,0.6-3.2,0.6
			c-1.2,0-2.2-0.2-3.2-0.6c-1-0.4-1.8-0.9-2.5-1.7C17,28.9,16.4,28,16.1,27s-0.5-2.2-0.5-3.4c0-1.3,0.2-2.4,0.6-3.4
			c0.4-1,0.9-1.9,1.6-2.6c0.7-0.7,1.5-1.3,2.5-1.7c1-0.4,2-0.6,3.2-0.6c1.2,0,2.2,0.2,3.2,0.6c1,0.4,1.8,0.9,2.4,1.7
			c0.7,0.7,1.2,1.6,1.6,2.6C30.8,21.1,31,22.3,31,23.5z M23.3,17.5c-1.5,0-2.8,0.5-3.6,1.6c-0.9,1.1-1.3,2.6-1.3,4.5
			c0,1.9,0.4,3.4,1.3,4.5c0.9,1.1,2.1,1.6,3.7,1.6c1.6,0,2.8-0.5,3.6-1.6c0.9-1.1,1.3-2.6,1.3-4.5c0-1.9-0.4-3.4-1.3-4.5
			C26,18,24.8,17.5,23.3,17.5z"/>
		<path class="st0" d="M40.9,15.2c2,0,3.5,0.4,4.7,1.3c1.2,0.9,1.7,2.3,1.7,4.2v8.1c0,0.5-0.1,0.9-0.3,1.1c-0.2,0.3-0.5,0.5-0.9,0.7
			c-0.5,0.3-1.3,0.6-2.2,0.8c-0.9,0.2-1.9,0.4-3.1,0.4c-2.1,0-3.8-0.4-5-1.3s-1.8-2.1-1.8-3.6c0-1.5,0.5-2.6,1.5-3.4
			c1-0.8,2.3-1.2,4.1-1.4l4.8-0.5v-1c0-1.1-0.3-2-1-2.5c-0.7-0.5-1.6-0.8-2.8-0.8c-1,0-1.9,0.1-2.7,0.4c-0.8,0.3-1.6,0.6-2.2,0.9
			c-0.2-0.2-0.3-0.3-0.5-0.5c-0.1-0.2-0.2-0.4-0.2-0.7c0-0.3,0.1-0.6,0.2-0.8c0.2-0.2,0.4-0.4,0.7-0.6c0.6-0.3,1.3-0.6,2.1-0.7
			C39.1,15.3,40,15.2,40.9,15.2z M40.9,29.6c1,0,1.7-0.1,2.4-0.3c0.6-0.2,1.1-0.4,1.3-0.6v-4.9l-4.2,0.4c-1.2,0.1-2.1,0.4-2.6,0.8
			c-0.6,0.4-0.9,1-0.9,1.9c0,0.9,0.3,1.5,1,2C38.6,29.4,39.6,29.6,40.9,29.6z"/>
		<path class="st0" d="M54.8,31.5c-0.2,0.1-0.5,0.1-0.7,0.1c-1,0-1.5-0.4-1.5-1.2v-21c0.1,0,0.3-0.1,0.5-0.2
			c0.2-0.1,0.5-0.1,0.7-0.1c1,0,1.5,0.4,1.5,1.2v21C55.2,31.4,55,31.4,54.8,31.5z"/>
		<path class="st0" d="M66.2,15.2c2,0,3.5,0.4,4.7,1.3c1.2,0.9,1.7,2.3,1.7,4.2v8.1c0,0.5-0.1,0.9-0.3,1.1c-0.2,0.3-0.5,0.5-0.9,0.7
			c-0.5,0.3-1.3,0.6-2.2,0.8c-0.9,0.2-1.9,0.4-3.1,0.4c-2.1,0-3.8-0.4-5-1.3c-1.2-0.8-1.8-2.1-1.8-3.6c0-1.5,0.5-2.6,1.5-3.4
			c1-0.8,2.3-1.2,4.1-1.4l4.8-0.5v-1c0-1.1-0.3-2-1-2.5c-0.7-0.5-1.6-0.8-2.8-0.8c-1,0-1.9,0.1-2.7,0.4c-0.8,0.3-1.6,0.6-2.2,0.9
			c-0.2-0.2-0.3-0.3-0.5-0.5c-0.1-0.2-0.2-0.4-0.2-0.7c0-0.3,0.1-0.6,0.2-0.8c0.2-0.2,0.4-0.4,0.7-0.6c0.6-0.3,1.3-0.6,2.1-0.7
			C64.4,15.3,65.3,15.2,66.2,15.2z M66.3,29.6c1,0,1.7-0.1,2.4-0.3c0.6-0.2,1.1-0.4,1.3-0.6v-4.9l-4.2,0.4c-1.2,0.1-2.1,0.4-2.6,0.8
			c-0.6,0.4-0.9,1-0.9,1.9c0,0.9,0.3,1.5,1,2C63.9,29.4,64.9,29.6,66.3,29.6z"/>
	</g>
	<g>
		<path class="st1" d="M72.3,5.2C74,5.8,76.2,7,78,9c2.2,2.4,3.1,5.1,3.4,7.3c0,0.1,0,0.1,0,0.2"/>
		<path class="st1" d="M73.1,3.8c1.8,0.6,4.2,1.7,6.2,3.9c1.8,1.9,2.7,4.1,3.2,5.9c0,0.1,0,0.1,0,0.2"/>
		<path class="st1" d="M74.2,2.5c1.9,0.6,4.3,1.7,6.4,4c2.6,2.8,3.4,6,3.6,8.3"/>
		<path class="st1" d="M76.1,1.3c1.8,0.6,4,1.7,5.9,3.8c2,2.2,3,4.7,3.4,6.8"/>
		<path class="st1" d="M78.9,0.5c1.4,0.7,3,1.7,4.4,3.2c1.4,1.5,2.3,3.2,2.8,4.7c0.2,0.6,0.4,1.2,0.5,1.8c0.1,0.7,0.2,1.4,0.3,2"/>
		<path class="st1" d="M83.4,1.1c0.4,0.4,0.8,0.7,1.2,1.2c1.8,2,2.8,4.2,3.2,6.2"/>
		<path class="st1" d="M87.8,3.7c0.9,1.6,1.3,3.2,1.6,4.6"/>
	</g>
</g>
</svg>
